<svg version="1.1" viewBox="0 -256 1536 1536" xmlns="http://www.w3.org/2000/svg" xmlns:cc="http://creativecommons.org/ns#" xmlns:dc="http://purl.org/dc/elements/1.1/" xmlns:rdf="http://www.w3.org/1999/02/22-rdf-syntax-ns#"><g transform="matrix(1,0,0,-1,0,1152)"><path d="m1536 640q0-156-61-298t-164-245-245-164-298-61q-179 0-336.5 76t-266 213-147.5 312q-3 14 7 27 9 12 25 12h199q23 0 30-23 50-162 185-261.5t304-99.5q104 0 198.5 40.5t163.5 109.5 109.5 163.5 40.5 198.5-40.5 198.5-109.5 163.5-163.5 109.5-198.5 40.5q-98 0-188-35.5t-160-101.5l137-138q31-30 14-69-17-40-59-40h-448q-26 0-45 19t-19 45v448q0 42 40 59 39 17 69-14l130-129q107 101 244.5 156.5t284.5 55.5q156 0 298-61t245-164 164-245 61-298z" fill="currentColor"/></g></svg>