<?xml version="1.0" standalone="no"?>
<!DOCTYPE svg PUBLIC "-//W3C//DTD SVG 20010904//EN"
 "http://www.w3.org/TR/2001/REC-SVG-20010904/DTD/svg10.dtd">
<svg version="1.0" xmlns="http://www.w3.org/2000/svg"
 width="100.000000pt" height="100.000000pt" viewBox="0 0 100.000000 100.000000"
 preserveAspectRatio="xMidYMid meet">
<metadata>
Created by potrace 1.14, written by Peter Selinger 2001-2017
</metadata>
<g transform="translate(0.000000,100.000000) scale(0.100000,-0.100000)"
fill="#000000" stroke="none">
<path d="M0 500 l0 -500 500 0 500 0 0 500 0 500 -500 0 -500 0 0 -500z m631
317 c52 -28 76 -76 60 -120 -12 -30 -38 -35 -103 -16 -36 10 -38 12 -38 53 0
77 -59 67 -101 -16 -30 -58 -38 -191 -15 -236 33 -64 116 -29 155 66 10 23 20
32 37 32 21 0 24 -5 24 -38 0 -60 -36 -187 -72 -254 -42 -80 -99 -118 -174
-118 -64 0 -97 23 -97 68 0 17 6 38 13 47 19 23 79 52 123 60 53 10 46 25 -12
25 -57 0 -105 28 -135 80 -16 27 -21 52 -20 110 0 121 50 206 146 254 69 34
147 35 209 3z"/>
<path d="M424 289 c-40 -11 -62 -35 -46 -51 13 -13 56 11 72 42 6 11 9 20 8
19 -2 0 -17 -5 -34 -10z"/>
</g>
</svg>
